<?xml version="1.0" encoding="iso-8859-1"?>
<!-- Generator: Adobe Illustrator 19.0.0, SVG Export Plug-In . SVG Version: 6.00 Build 0)  -->
<svg version="1.1" id="Layer_1" xmlns="http://www.w3.org/2000/svg" xmlns:xlink="http://www.w3.org/1999/xlink" x="0px" y="0px"
	 viewBox="0 0 459.055 459.055" style="enable-background:new 0 0 459.055 459.055;" xml:space="preserve">
<g>
	<g>
		<g>
			<path d="M444.23,84.228l-90.366-25.999c-3.397-0.977-6.986-1.059-10.421-0.238c-9.273,2.214-77.889,18.596-87.047,20.782
				l-136.822-5.062c-11.304-0.42-20.735,8.597-20.818,19.915l-0.301,40.872c-0.082,11.09,8.857,20.155,19.951,20.224l30.057,0.186
				l-32.964-34.053l57.152,36.715c0.003,0.002,0.006,0.003,0.008,0.005c4.628,2.967,10.385,3.324,15.23,1.199l59.181-25.952
				c8.175-3.584,11.906-13.124,8.317-21.308c-3.566-8.132-13.111-11.911-21.308-8.317l-51.239,22.469l-51.755-33.248l50.947,16.648
				l45.812-20.089c16.154-7.083,34.81,0.444,41.764,16.301c0.468,1.067,0.85,2.153,1.193,3.247l67.179-25.629
				c6.577-2.509,11.286-0.564,16.489,0.934l90.366,25.999c4.015,1.155,7.678,2.935,10.93,5.191c1.062-1.646,1.917-3.462,2.486-5.441
				C461.381,98.706,455.102,87.356,444.23,84.228z"/>
			<path d="M440.201,125.936l-90.366-25.998c-2.946-0.848-6.045-1.024-9.069-0.513L271.492,111.1
				c3.279,14.68-4.184,29.803-18.185,35.942c-11.688,5.125-8.419,3.692-19.147,8.396c16.776,0.104,18.862-0.128,18.862-0.128
				s13.878-1.87,89.961-14.712l85.89,24.711c10.893,3.131,22.228-3.168,25.351-14.023
				C457.351,140.414,451.073,129.064,440.201,125.936z"/>
			<path d="M80.863,115.718c0.125-20.139-15.604-37.056-35.911-38.138c6.511,16.349,18.115,47.233,24.607,64.928
				C76.871,135.298,80.801,125.61,80.863,115.718z"/>
			<path d="M18.456,151.847l21.386-35.717c-2.271-6.006-4.53-11.938-6.619-17.368L7.994,140.896
				C10.858,145.095,14.394,148.799,18.456,151.847z"/>
			<path d="M30.789,158.437c6.381,2.245,13.256,3.091,20.153,2.355c2.668-0.285,4.359-2.999,3.448-5.518
				c-2.009-5.559-4.968-13.583-8.273-22.436L30.789,158.437z"/>
			<path d="M25.537,79.248c-1.027-2.481-4.086-3.315-6.225-1.785C7.703,85.764,0.096,99.316,0.001,114.678
				c-0.022,3.601,0.382,7.103,1.143,10.471L26.788,82.32C26.333,81.19,25.914,80.16,25.537,79.248z"/>
			<path d="M429.566,175.918c-21.7,0-393.28,0-401.024,0c-9.582,0-17.532,7.777-17.532,17.532c0,9.683,7.849,17.532,17.532,17.532
				h30.49v142.23c-8.289,4.239-13.968,12.857-13.968,22.807c0,14.142,11.465,25.607,25.607,25.607s25.607-11.465,25.607-25.607
				c0-9.949-5.678-18.567-13.967-22.806v-22.292l147.124-53.931l147.124,53.931v22.291c-8.289,4.239-13.968,12.857-13.968,22.807
				c0,14.142,11.465,25.607,25.607,25.607c14.143,0,25.607-11.465,25.607-25.607c0-9.949-5.678-18.567-13.967-22.806V210.982h29.727
				c9.683,0,17.532-7.849,17.532-17.532C447.098,183.825,439.25,175.918,429.566,175.918z M82.312,311.086v-88.027l120.069,44.014
				L82.312,311.086z M103.475,210.982h251.922l-125.961,46.173L103.475,210.982z M376.56,311.086l-120.069-44.013l120.069-44.014
				V311.086z"/>
		</g>
	</g>
</g>
<g>
</g>
<g>
</g>
<g>
</g>
<g>
</g>
<g>
</g>
<g>
</g>
<g>
</g>
<g>
</g>
<g>
</g>
<g>
</g>
<g>
</g>
<g>
</g>
<g>
</g>
<g>
</g>
<g>
</g>
</svg>
